<svg xmlns="http://www.w3.org/2000/svg" width="900" height="745" font-family="sans-serif"><rect width="900" height="745" fill="#0f1117"/><rect x="52.4611554176039" y="52.46115541760385" width="795.0776891647922" height="640.0151265949529" fill="none" stroke="#2c2f3a" stroke-width="2"/><circle cx="449.58767084247665" cy="692.4762820125568" r="7" fill="#5fd3ff"/><text x="459.58767084247665" y="696.4762820125568" fill="#5fd3ff" font-size="12">start</text><line x1="450.1456023002188" y1="369.1953762483017" x2="450.1456023002188" y2="351.1953762483017" stroke="#ffd27f" stroke-width="2"/><circle cx="450.1456023002188" cy="369.1953762483017" r="5" fill="#e9e7e2"/><text x="455.1456023002188" y="364.1953762483017" fill="#9aa" font-size="10">1</text><line x1="384.569158028214" y1="369.1953762483017" x2="384.569158028214" y2="351.1953762483017" stroke="#ffd27f" stroke-width="2"/><circle cx="384.569158028214" cy="369.1953762483017" r="5" fill="#e9e7e2"/><text x="389.569158028214" y="364.1953762483017" fill="#9aa" font-size="10">2</text><line x1="515.7220465722237" y1="369.1953762483017" x2="515.7220465722237" y2="351.1953762483017" stroke="#ffd27f" stroke-width="2"/><circle cx="515.7220465722237" cy="369.1953762483017" r="5" fill="#e9e7e2"/><text x="520.7220465722237" y="364.1953762483017" fill="#9aa" font-size="10">3</text><line x1="450.1456023002188" y1="217.05802053416397" x2="450.14562322144707" y2="235.0580205341579" stroke="#ffd27f" stroke-width="2"/><circle cx="450.1456023002188" cy="217.05802053416397" r="5" fill="#e9e7e2"/><text x="455.1456023002188" y="212.05802053416397" fill="#9aa" font-size="10">4</text><line x1="515.7220465722237" y1="217.05802053416397" x2="515.722067493452" y2="235.0580205341579" stroke="#ffd27f" stroke-width="2"/><circle cx="515.7220465722237" cy="217.05802053416397" r="5" fill="#e9e7e2"/><text x="520.7220465722237" y="212.05802053416397" fill="#9aa" font-size="10">5</text><line x1="384.569158028214" y1="217.05802053416397" x2="384.5691789494423" y2="235.0580205341579" stroke="#ffd27f" stroke-width="2"/><circle cx="384.569158028214" cy="217.05802053416397" r="5" fill="#e9e7e2"/><text x="389.569158028214" y="212.05802053416397" fill="#9aa" font-size="10">6</text><line x1="345.22329146501113" y1="529.2019102781641" x2="345.22329146501113" y2="511.20191027816406" stroke="#ffd27f" stroke-width="2"/><circle cx="345.22329146501113" cy="529.2019102781641" r="5" fill="#e9e7e2"/><text x="350.22329146501113" y="524.2019102781641" fill="#9aa" font-size="10">7</text><line x1="555.0679131354265" y1="529.2019102781641" x2="555.0679131354265" y2="511.20191027816406" stroke="#ffd27f" stroke-width="2"/><circle cx="555.0679131354265" cy="529.2019102781641" r="5" fill="#e9e7e2"/><text x="560.0679131354265" y="524.2019102781641" fill="#9aa" font-size="10">8</text><line x1="286.2044916202068" y1="529.2019102781641" x2="286.2044916202068" y2="511.20191027816406" stroke="#ffd27f" stroke-width="2"/><circle cx="286.2044916202068" cy="529.2019102781641" r="5" fill="#e9e7e2"/><text x="291.2044916202068" y="524.2019102781641" fill="#9aa" font-size="10">9</text><line x1="614.0867129802308" y1="529.2019102781641" x2="614.0867129802308" y2="511.20191027816406" stroke="#ffd27f" stroke-width="2"/><circle cx="614.0867129802308" cy="529.2019102781641" r="5" fill="#e9e7e2"/><text x="619.0867129802308" y="524.2019102781641" fill="#9aa" font-size="10">10</text><line x1="227.18569177540246" y1="529.2019102781641" x2="227.18569177540246" y2="511.20191027816406" stroke="#ffd27f" stroke-width="2"/><circle cx="227.18569177540246" cy="529.2019102781641" r="5" fill="#e9e7e2"/><text x="232.18569177540246" y="524.2019102781641" fill="#9aa" font-size="10">11</text><line x1="673.1055128250351" y1="529.2019102781641" x2="673.1055128250351" y2="511.20191027816406" stroke="#ffd27f" stroke-width="2"/><circle cx="673.1055128250351" cy="529.2019102781641" r="5" fill="#e9e7e2"/><text x="678.1055128250351" y="524.2019102781641" fill="#9aa" font-size="10">12</text><line x1="168.16689193059815" y1="529.2019102781641" x2="168.16689193059815" y2="511.20191027816406" stroke="#ffd27f" stroke-width="2"/><circle cx="168.16689193059815" cy="529.2019102781641" r="5" fill="#e9e7e2"/><text x="173.16689193059815" y="524.2019102781641" fill="#9aa" font-size="10">13</text><line x1="732.1243126698395" y1="529.2019102781641" x2="732.1243126698395" y2="511.20191027816406" stroke="#ffd27f" stroke-width="2"/><circle cx="732.1243126698395" cy="529.2019102781641" r="5" fill="#e9e7e2"/><text x="737.1243126698395" y="524.2019102781641" fill="#9aa" font-size="10">14</text><line x1="574.7408464170279" y1="517.6604545853659" x2="574.7408464170279" y2="535.6604545853659" stroke="#ffd27f" stroke-width="2"/><circle cx="574.7408464170279" cy="517.6604545853659" r="5" fill="#e9e7e2"/><text x="579.7408464170279" y="512.6604545853659" fill="#9aa" font-size="10">15</text><line x1="644.2518798468964" y1="517.6604545853659" x2="644.2518798468964" y2="535.6604545853659" stroke="#ffd27f" stroke-width="2"/><circle cx="644.2518798468964" cy="517.6604545853659" r="5" fill="#e9e7e2"/><text x="649.2518798468964" y="512.6604545853659" fill="#9aa" font-size="10">16</text><line x1="713.7629132767635" y1="517.6607422627911" x2="713.7629132767635" y2="535.6607422627911" stroke="#ffd27f" stroke-width="2"/><circle cx="713.7629132767635" cy="517.6607422627911" r="5" fill="#e9e7e2"/><text x="718.7629132767635" y="512.6607422627911" fill="#9aa" font-size="10">17</text><line x1="522.2796909994241" y1="483.29839928776073" x2="504.27969009825136" y2="483.2984008050473" stroke="#ffd27f" stroke-width="2"/><circle cx="522.2796909994241" cy="483.29839928776073" r="5" fill="#e9e7e2"/><text x="527.2796909994241" y="478.29839928776073" fill="#9aa" font-size="10">18</text><line x1="765.437158367423" y1="482.7719996307732" x2="783.4371575540188" y2="482.77576857048996" stroke="#ffd27f" stroke-width="2"/><circle cx="765.437158367423" cy="482.7719996307732" r="5" fill="#e9e7e2"/><text x="770.437158367423" y="477.7719996307732" fill="#9aa" font-size="10">19</text><line x1="187.05288986982737" y1="517.6604545853659" x2="187.05288986982737" y2="535.6604545853659" stroke="#ffd27f" stroke-width="2"/><circle cx="187.05288986982737" cy="517.6604545853659" r="5" fill="#e9e7e2"/><text x="192.05288986982737" y="512.6604545853659" fill="#9aa" font-size="10">20</text><line x1="256.56394831512364" y1="517.6604545853659" x2="256.56394831512364" y2="535.6604545853659" stroke="#ffd27f" stroke-width="2"/><circle cx="256.56394831512364" cy="517.6604545853659" r="5" fill="#e9e7e2"/><text x="261.56394831512364" y="512.6604545853659" fill="#9aa" font-size="10">21</text><line x1="326.0749692372772" y1="517.6604545853659" x2="326.0749692372772" y2="535.6604545853659" stroke="#ffd27f" stroke-width="2"/><circle cx="326.0749692372772" cy="517.6604545853659" r="5" fill="#e9e7e2"/><text x="331.0749692372772" y="512.6604545853659" fill="#9aa" font-size="10">22</text><line x1="134.5917344522235" y1="483.29839928776073" x2="116.59173355105075" y2="483.2984008050473" stroke="#ffd27f" stroke-width="2"/><circle cx="134.5917344522235" cy="483.29839928776073" r="5" fill="#e9e7e2"/><text x="139.5917344522235" y="478.29839928776073" fill="#9aa" font-size="10">23</text><line x1="377.8803577106181" y1="483.22562940693746" x2="395.88036012907753" y2="483.22562940693746" stroke="#ffd27f" stroke-width="2"/><circle cx="377.8803577106181" cy="483.22562940693746" r="5" fill="#e9e7e2"/><text x="382.8803577106181" y="478.22562940693746" fill="#9aa" font-size="10">24</text><line x1="705.8937349610376" y1="324.6033991464238" x2="723.893737379497" y2="324.6033991464238" stroke="#ffd27f" stroke-width="2"/><circle cx="705.8937349610376" cy="324.6033991464238" r="5" fill="#e9e7e2"/><text x="710.8937349610376" y="319.6033991464238" fill="#9aa" font-size="10">25</text><line x1="705.8937349610376" y1="252.46931044721853" x2="723.893737379497" y2="252.46931044721853" stroke="#ffd27f" stroke-width="2"/><circle cx="705.8937349610376" cy="252.46931044721853" r="5" fill="#e9e7e2"/><text x="710.8937349610376" y="247.46931044721853" fill="#9aa" font-size="10">26</text><line x1="714.418667713313" y1="252.46931044721853" x2="696.4186652948537" y2="252.46930741264524" stroke="#ffd27f" stroke-width="2"/><circle cx="714.418667713313" cy="252.46931044721853" r="5" fill="#e9e7e2"/><text x="719.418667713313" y="247.46931044721853" fill="#9aa" font-size="10">27</text><line x1="714.418667713313" y1="324.6033991464238" x2="696.4186652948537" y2="324.6033961118505" stroke="#ffd27f" stroke-width="2"/><circle cx="714.418667713313" cy="324.6033991464238" r="5" fill="#e9e7e2"/><text x="719.418667713313" y="319.6033991464238" fill="#9aa" font-size="10">28</text><line x1="194.5859108605235" y1="257.3445172310029" x2="176.58591534025783" y2="257.33679120869215" stroke="#ffd27f" stroke-width="2"/><circle cx="194.5859108605235" cy="257.3445172310029" r="5" fill="#e9e7e2"/><text x="199.5859108605235" y="252.3445172310029" fill="#9aa" font-size="10">29</text><line x1="194.57210234412116" y1="324.66969003132766" x2="176.5720999256619" y2="324.66968699675436" stroke="#ffd27f" stroke-width="2"/><circle cx="194.57210234412116" cy="324.66969003132766" r="5" fill="#e9e7e2"/><text x="199.57210234412116" y="319.66969003132766" fill="#9aa" font-size="10">30</text><line x1="185.87253688712477" y1="324.6033991464238" x2="203.87253930558418" y2="324.6033991464238" stroke="#ffd27f" stroke-width="2"/><circle cx="185.87253688712477" cy="324.6033991464238" r="5" fill="#e9e7e2"/><text x="190.87253688712477" y="319.6033991464238" fill="#9aa" font-size="10">31</text><line x1="185.87253688712477" y1="252.46931044721853" x2="203.87253930558418" y2="252.46931044721853" stroke="#ffd27f" stroke-width="2"/><circle cx="185.87253688712477" cy="252.46931044721853" r="5" fill="#e9e7e2"/><text x="190.87253688712477" y="247.46931044721853" fill="#9aa" font-size="10">32</text><line x1="847.5388445823961" y1="560.6785985256412" x2="865.5388470008555" y2="560.6785985256412" stroke="#ffd27f" stroke-width="2"/><circle cx="847.5388445823961" cy="560.6785985256412" r="5" fill="#e9e7e2"/><text x="852.5388445823961" y="555.6785985256412" fill="#9aa" font-size="10">33</text><line x1="847.5388445823961" y1="495.10215425363634" x2="865.5388470008555" y2="495.10215425363634" stroke="#ffd27f" stroke-width="2"/><circle cx="847.5388445823961" cy="495.10215425363634" r="5" fill="#e9e7e2"/><text x="852.5388445823961" y="490.10215425363634" fill="#9aa" font-size="10">34</text><line x1="774.0932470100945" y1="488.54450982643584" x2="756.0932445916352" y2="488.54450679186255" stroke="#ffd27f" stroke-width="2"/><circle cx="774.0932470100945" cy="488.54450982643584" r="5" fill="#e9e7e2"/><text x="779.0932470100945" y="483.54450982643584" fill="#9aa" font-size="10">35</text><line x1="52.55626407586818" y1="560.6785985256412" x2="34.556261657408896" y2="560.6785954910679" stroke="#ffd27f" stroke-width="2"/><circle cx="52.55626407586818" cy="560.6785985256412" r="5" fill="#e9e7e2"/><text x="57.55626407586818" y="555.6785985256412" fill="#9aa" font-size="10">36</text><line x1="52.752360018041585" y1="495.10215425363634" x2="34.75235759958231" y2="495.10215121906305" stroke="#ffd27f" stroke-width="2"/><circle cx="52.752360018041585" cy="495.10215425363634" r="5" fill="#e9e7e2"/><text x="57.752360018041585" y="490.10215425363634" fill="#9aa" font-size="10">37</text><line x1="126.19795759034315" y1="488.54450982643584" x2="144.19795849151566" y2="488.54451437829556" stroke="#ffd27f" stroke-width="2"/><circle cx="126.19795759034315" cy="488.54450982643584" r="5" fill="#e9e7e2"/><text x="131.19795759034315" y="483.54450982643584" fill="#9aa" font-size="10">38</text><line x1="847.5388445823961" y1="342.96479853949984" x2="865.5388470008555" y2="342.96479853949984" stroke="#ffd27f" stroke-width="2"/><circle cx="847.5388445823961" cy="342.96479853949984" r="5" fill="#e9e7e2"/><text x="852.5388445823961" y="337.96479853949984" fill="#9aa" font-size="10">39</text><line x1="847.5388445823961" y1="283.9459986946955" x2="865.5388470008555" y2="283.9459986946955" stroke="#ffd27f" stroke-width="2"/><circle cx="847.5388445823961" cy="283.9459986946955" r="5" fill="#e9e7e2"/><text x="852.5388445823961" y="278.9459986946955" fill="#9aa" font-size="10">40</text><line x1="847.5388445823961" y1="224.927223865319" x2="865.5388470008555" y2="224.927223865319" stroke="#ffd27f" stroke-width="2"/><circle cx="847.5388445823961" cy="224.927223865319" r="5" fill="#e9e7e2"/><text x="852.5388445823961" y="219.927223865319" fill="#9aa" font-size="10">41</text><line x1="810.8160457962452" y1="88.52819976720649" x2="810.8160629623809" y2="70.52819976721058" stroke="#ffd27f" stroke-width="2"/><circle cx="810.8160457962452" cy="88.52819976720649" r="5" fill="#e9e7e2"/><text x="815.8160457962452" y="83.52819976720649" fill="#9aa" font-size="10">42</text><line x1="52.4611554176039" y1="343.0928525167895" x2="34.46115299914449" y2="343.0928525167895" stroke="#ffd27f" stroke-width="2"/><circle cx="52.4611554176039" cy="343.0928525167895" r="5" fill="#e9e7e2"/><text x="57.4611554176039" y="338.0928525167895" fill="#9aa" font-size="10">43</text><line x1="52.752360018041585" y1="283.9459986946955" x2="34.75235759958218" y2="283.9459986946955" stroke="#ffd27f" stroke-width="2"/><circle cx="52.752360018041585" cy="283.9459986946955" r="5" fill="#e9e7e2"/><text x="57.752360018041585" y="278.9459986946955" fill="#9aa" font-size="10">44</text><line x1="52.752360018041585" y1="224.927223865319" x2="34.75235759958218" y2="224.927223865319" stroke="#ffd27f" stroke-width="2"/><circle cx="52.752360018041585" cy="224.927223865319" r="5" fill="#e9e7e2"/><text x="57.752360018041585" y="219.927223865319" fill="#9aa" font-size="10">45</text><line x1="89.47515880419238" y1="88.52819976720649" x2="89.47517597032802" y2="70.52819976721058" stroke="#ffd27f" stroke-width="2"/><circle cx="89.47515880419238" cy="88.52819976720649" r="5" fill="#e9e7e2"/><text x="94.47515880419238" y="83.52819976720649" fill="#9aa" font-size="10">46</text><line x1="384.569158028214" y1="364.6050201461748" x2="384.5691236959427" y2="382.60502014615844" stroke="#ffd27f" stroke-width="2"/><circle cx="384.569158028214" cy="364.6050201461748" r="5" fill="#e9e7e2"/><text x="389.569158028214" y="359.6050201461748" fill="#9aa" font-size="10">47</text><line x1="450.1456023002188" y1="364.6050201461748" x2="450.1455679679475" y2="382.60502014615844" stroke="#ffd27f" stroke-width="2"/><circle cx="450.1456023002188" cy="364.6050201461748" r="5" fill="#e9e7e2"/><text x="455.1456023002188" y="359.6050201461748" fill="#9aa" font-size="10">48</text><line x1="516.4682505435229" y1="364.87055891721315" x2="516.4682162112516" y2="382.8705589171968" stroke="#ffd27f" stroke-width="2"/><circle cx="516.4682505435229" cy="364.87055891721315" r="5" fill="#e9e7e2"/><text x="521.4682505435229" y="359.87055891721315" fill="#9aa" font-size="10">49</text><line x1="515.7220465722237" y1="221.64840165171879" x2="515.7220830502622" y2="203.64840165173726" stroke="#ffd27f" stroke-width="2"/><circle cx="515.7220465722237" cy="221.64840165171879" r="5" fill="#e9e7e2"/><text x="520.7220465722237" y="216.64840165171879" fill="#9aa" font-size="10">50</text><line x1="450.14559542298804" y1="221.64840165171879" x2="450.14563190102655" y2="203.64840165173726" stroke="#ffd27f" stroke-width="2"/><circle cx="450.14559542298804" cy="221.64840165171879" r="5" fill="#e9e7e2"/><text x="455.14559542298804" y="216.64840165171879" fill="#9aa" font-size="10">51</text><line x1="384.569158028214" y1="221.64840165171879" x2="384.56919450625253" y2="203.64840165173726" stroke="#ffd27f" stroke-width="2"/><circle cx="384.569158028214" cy="221.64840165171879" r="5" fill="#e9e7e2"/><text x="389.569158028214" y="216.64840165171879" fill="#9aa" font-size="10">52</text><line x1="732.1243126698395" y1="52.46115541760385" x2="732.1243335910677" y2="34.46115541760993" stroke="#ffd27f" stroke-width="2"/><circle cx="732.1243126698395" cy="52.46115541760385" r="5" fill="#e9e7e2"/><text x="737.1243126698395" y="47.46115541760385" fill="#9aa" font-size="10">53</text><line x1="666.5478683978347" y1="52.46115541760385" x2="666.547889319063" y2="34.46115541760993" stroke="#ffd27f" stroke-width="2"/><circle cx="666.5478683978347" cy="52.46115541760385" r="5" fill="#e9e7e2"/><text x="671.5478683978347" y="47.46115541760385" fill="#9aa" font-size="10">54</text><line x1="600.9714241258299" y1="52.46115541760385" x2="600.9714450470582" y2="34.46115541760993" stroke="#ffd27f" stroke-width="2"/><circle cx="600.9714241258299" cy="52.46115541760385" r="5" fill="#e9e7e2"/><text x="605.9714241258299" y="47.46115541760385" fill="#9aa" font-size="10">55</text><line x1="535.3949798538251" y1="52.46115541760385" x2="535.3950007750534" y2="34.46115541760993" stroke="#ffd27f" stroke-width="2"/><circle cx="535.3949798538251" cy="52.46115541760385" r="5" fill="#e9e7e2"/><text x="540.3949798538251" y="47.46115541760385" fill="#9aa" font-size="10">56</text><line x1="765.56828924239" y1="80.65904646690844" x2="783.5682901435574" y2="80.65906619163403" stroke="#ffd27f" stroke-width="2"/><circle cx="765.56828924239" cy="80.65904646690844" r="5" fill="#e9e7e2"/><text x="770.56828924239" y="75.65904646690844" fill="#9aa" font-size="10">57</text><line x1="498.6721716868882" y1="89.83970864030407" x2="480.67217078572077" y2="89.83968891557848" stroke="#ffd27f" stroke-width="2"/><circle cx="498.6721716868882" cy="89.83970864030407" r="5" fill="#e9e7e2"/><text x="503.6721716868882" y="84.83970864030407" fill="#9aa" font-size="10">58</text><line x1="364.8962247466126" y1="52.46115541760385" x2="364.89624566784084" y2="34.46115541760993" stroke="#ffd27f" stroke-width="2"/><circle cx="364.8962247466126" cy="52.46115541760385" r="5" fill="#e9e7e2"/><text x="369.8962247466126" y="47.46115541760385" fill="#9aa" font-size="10">59</text><line x1="299.31978047460774" y1="52.46115541760385" x2="299.319801395836" y2="34.46115541760993" stroke="#ffd27f" stroke-width="2"/><circle cx="299.31978047460774" cy="52.46115541760385" r="5" fill="#e9e7e2"/><text x="304.31978047460774" y="47.46115541760385" fill="#9aa" font-size="10">60</text><line x1="233.74333620260296" y1="52.46115541760385" x2="233.74335712383123" y2="34.46115541760993" stroke="#ffd27f" stroke-width="2"/><circle cx="233.74333620260296" cy="52.46115541760385" r="5" fill="#e9e7e2"/><text x="238.74333620260296" y="47.46115541760385" fill="#9aa" font-size="10">61</text><line x1="168.16689193059815" y1="52.46115541760385" x2="168.16691285182642" y2="34.46115541760993" stroke="#ffd27f" stroke-width="2"/><circle cx="168.16689193059815" cy="52.46115541760385" r="5" fill="#e9e7e2"/><text x="173.16689193059815" y="47.46115541760385" fill="#9aa" font-size="10">62</text><line x1="401.88133531355476" y1="89.83970864030407" x2="419.8813362147222" y2="89.83972836502966" stroke="#ffd27f" stroke-width="2"/><circle cx="401.88133531355476" cy="89.83970864030407" r="5" fill="#e9e7e2"/><text x="406.88133531355476" y="84.83970864030407" fill="#9aa" font-size="10">63</text><line x1="134.98522713883747" y1="80.65904646690844" x2="116.98522623767008" y2="80.65902674218285" stroke="#ffd27f" stroke-width="2"/><circle cx="134.98522713883747" cy="80.65904646690844" r="5" fill="#e9e7e2"/><text x="139.98522713883747" y="75.65904646690844" fill="#9aa" font-size="10">64</text><line x1="490.14723268075596" y1="92.46277641735482" x2="508.1472335819234" y2="92.4627961420804" stroke="#ffd27f" stroke-width="2"/><circle cx="490.14723268075596" cy="92.46277641735482" r="5" fill="#e9e7e2"/><text x="495.14723268075596" y="87.46277641735482" fill="#9aa" font-size="10">65</text><line x1="410.14397191968163" y1="92.46272638649923" x2="392.14397101850886" y2="92.46272790378582" stroke="#ffd27f" stroke-width="2"/><circle cx="410.14397191968163" cy="92.46272638649923" r="5" fill="#e9e7e2"/><text x="415.14397191968163" y="87.46272638649923" fill="#9aa" font-size="10">66</text></svg>